<svg width="100" height="100" viewBox="0 0 100 100" fill="none" xmlns="http://www.w3.org/2000/svg">
<circle cx="50" cy="50" r="50" fill="#D9D9D9"/>
<path d="M63.8382 59.121C63.1014 57.3756 62.032 55.7902 60.6898 54.4531C59.3516 53.1121 57.7665 52.0429 56.0218 51.3046C56.0062 51.2968 55.9906 51.2929 55.975 51.2851C58.4085 49.5273 59.9906 46.664 59.9906 43.4335C59.9906 38.082 55.6546 33.746 50.3031 33.746C44.9515 33.746 40.6156 38.082 40.6156 43.4335C40.6156 46.664 42.1976 49.5273 44.6312 51.289C44.6156 51.2968 44.6 51.3007 44.5843 51.3085C42.8343 52.0468 41.264 53.1054 39.9164 54.457C38.5754 55.7951 37.5062 57.3803 36.7679 59.1249C36.0426 60.833 35.6514 62.6642 35.6156 64.5195C35.6145 64.5612 35.6218 64.6026 35.6371 64.6415C35.6523 64.6803 35.6752 64.7157 35.7043 64.7455C35.7334 64.7754 35.7682 64.7991 35.8067 64.8153C35.8451 64.8315 35.8864 64.8398 35.9281 64.8398H38.2718C38.4437 64.8398 38.5804 64.7031 38.5843 64.5351C38.6625 61.5195 39.8734 58.6953 42.014 56.5546C44.2289 54.3398 47.1703 53.121 50.3031 53.121C53.4359 53.121 56.3773 54.3398 58.5921 56.5546C60.7328 58.6953 61.9437 61.5195 62.0218 64.5351C62.0257 64.707 62.1625 64.8398 62.3343 64.8398H64.6781C64.7198 64.8398 64.7611 64.8315 64.7995 64.8153C64.8379 64.7991 64.8727 64.7754 64.9019 64.7455C64.931 64.7157 64.9538 64.6803 64.9691 64.6415C64.9843 64.6026 64.9916 64.5612 64.9906 64.5195C64.9515 62.6523 64.5648 60.8359 63.8382 59.121ZM50.3031 50.1523C48.5101 50.1523 46.8226 49.4531 45.5531 48.1835C44.2835 46.914 43.5843 45.2265 43.5843 43.4335C43.5843 41.6406 44.2835 39.9531 45.5531 38.6835C46.8226 37.414 48.5101 36.7148 50.3031 36.7148C52.096 36.7148 53.7835 37.414 55.0531 38.6835C56.3226 39.9531 57.0218 41.6406 57.0218 43.4335C57.0218 45.2265 56.3226 46.914 55.0531 48.1835C53.7835 49.4531 52.096 50.1523 50.3031 50.1523Z" fill="black"/>
</svg>
