<svg width="24" height="24" viewBox="0 0 24 24" fill="none" xmlns="http://www.w3.org/2000/svg">
<path d="M17.9461 11.4094L7.38047 3.15703C7.35286 3.1353 7.31968 3.12179 7.28474 3.11806C7.2498 3.11433 7.21452 3.12053 7.18295 3.13595C7.15137 3.15137 7.12479 3.17538 7.10625 3.20523C7.08771 3.23508 7.07796 3.26955 7.07813 3.30469V5.11641C7.07813 5.23125 7.13203 5.34141 7.2211 5.41172L15.6586 12L7.2211 18.5883C7.12969 18.6586 7.07813 18.7688 7.07813 18.8836V20.6953C7.07813 20.8523 7.2586 20.9391 7.38047 20.843L17.9461 12.5906C18.0359 12.5206 18.1085 12.431 18.1585 12.3286C18.2085 12.2263 18.2344 12.1139 18.2344 12C18.2344 11.8861 18.2085 11.7737 18.1585 11.6714C18.1085 11.569 18.0359 11.4794 17.9461 11.4094Z" fill="#333333"/>
</svg>
