<svg width="24" height="24" viewBox="0 0 24 24" fill="none" xmlns="http://www.w3.org/2000/svg">
<path d="M12.4968 11.5383L6.51317 3.89297C6.44286 3.80156 6.3327 3.75 6.21786 3.75H4.40614C4.24911 3.75 4.16239 3.93047 4.25848 4.05234L10.4788 12L4.25848 19.9477C4.23684 19.9753 4.22342 20.0085 4.21974 20.0434C4.21606 20.0783 4.22228 20.1135 4.23768 20.145C4.25308 20.1766 4.27705 20.2032 4.30684 20.2217C4.33663 20.2403 4.37104 20.2501 4.40614 20.25H6.21786C6.3327 20.25 6.44286 20.1961 6.51317 20.107L12.4968 12.4641C12.71 12.1898 12.71 11.8102 12.4968 11.5383ZM19.6218 11.5383L13.6382 3.89297C13.5679 3.80156 13.4577 3.75 13.3429 3.75H11.5311C11.3741 3.75 11.2874 3.93047 11.3835 4.05234L17.6038 12L11.3835 19.9477C11.3618 19.9753 11.3484 20.0085 11.3447 20.0434C11.3411 20.0783 11.3473 20.1135 11.3627 20.145C11.3781 20.1766 11.402 20.2032 11.4318 20.2217C11.4616 20.2403 11.496 20.2501 11.5311 20.25H13.3429C13.4577 20.25 13.5679 20.1961 13.6382 20.107L19.6218 12.4641C19.835 12.1898 19.835 11.8102 19.6218 11.5383Z" fill="#333333"/>
</svg>
